<svg aria-hidden="true" style="width:0;height:0;position:absolute;overflow:hidden" xmlns="http://www.w3.org/2000/svg"><defs><symbol id="icon+" viewBox="0 0 32 32"><path d="m14.398 32.002.011-14.402-14.402.011v-3.213l14.402.011L14.398.007h3.213L17.6 14.409h14.391v3.19H17.6V31.99l-3.202.011z"/></symbol><symbol id="icon-x" viewBox="0 0 32 32"><path d="M28.28 31.12 15.56 18.38 2.84 31.12 0 28.28l12.74-12.72L0 2.84 2.84 0l12.72 12.74L28.28.02l2.82 2.82-12.72 12.72L31.1 28.28l-2.82 2.84z"/></symbol><symbol id="icon-checkmark" viewBox="0 0 32 32"><path d="M27 4 12 19l-7-7-5 5 12 12L32 9z"/></symbol><symbol id="icon-minus" viewBox="0 0 32 32"><path d="M0 13v6a1 1 0 0 0 1 1h30a1 1 0 0 0 1-1v-6a1 1 0 0 0-1-1H1a1 1 0 0 0-1 1z"/></symbol><symbol id="icon-plus" viewBox="0 0 32 32"><path d="M31 12H20V1a1 1 0 0 0-1-1h-6a1 1 0 0 0-1 1v11H1a1 1 0 0 0-1 1v6a1 1 0 0 0 1 1h11v11a1 1 0 0 0 1 1h6a1 1 0 0 0 1-1V20h11a1 1 0 0 0 1-1v-6a1 1 0 0 0-1-1z"/></symbol></defs></svg>