<svg aria-hidden="true" style="width:0;height:0;position:absolute;overflow:hidden" xmlns="http://www.w3.org/2000/svg"><defs><symbol id="icon+" viewBox="0 0 32 32"><path d="m14.398 32.002.011-14.402-14.402.011v-3.213l14.402.011L14.398.007h3.213L17.6 14.409h14.391v3.19H17.6V31.99l-3.202.011z"/></symbol><symbol id="icon-x" viewBox="0 0 32 32"><path d="M28.28 31.12 15.56 18.38 2.84 31.12 0 28.28l12.74-12.72L0 2.84 2.84 0l12.72 12.74L28.28.02l2.82 2.82-12.72 12.72L31.1 28.28l-2.82 2.84z"/></symbol><symbol id="icon-checkmark" viewBox="0 0 32 32"><path d="M27 4 12 19l-7-7-5 5 12 12L32 9z"/></symbol><symbol id="icon-minus" viewBox="0 0 32 32"><path d="M0 13v6a1 1 0 0 0 1 1h30a1 1 0 0 0 1-1v-6a1 1 0 0 0-1-1H1a1 1 0 0 0-1 1z"/></symbol><symbol id="icon-plus" viewBox="0 0 32 32"><path d="M31 12H20V1a1 1 0 0 0-1-1h-6a1 1 0 0 0-1 1v11H1a1 1 0 0 0-1 1v6a1 1 0 0 0 1 1h11v11a1 1 0 0 0 1 1h6a1 1 0 0 0 1-1V20h11a1 1 0 0 0 1-1v-6a1 1 0 0 0-1-1z"/></symbol><symbol id="icon-phone" viewBox="0 0 32 32"><path d="M25.29 19.824c-.655-.682-1.445-1.047-2.283-1.047-.831 0-1.628.358-2.31 1.04l-2.134 2.128c-.176-.095-.351-.182-.52-.27a8.314 8.314 0 0 1-.669-.358c-1.999-1.27-3.816-2.924-5.558-5.065-.844-1.067-1.412-1.965-1.824-2.877.554-.507 1.067-1.033 1.567-1.54.189-.189.378-.385.567-.574 1.418-1.418 1.418-3.255 0-4.674l-1.844-1.844a29.275 29.275 0 0 1-.628-.642 31.411 31.411 0 0 0-1.27-1.256c-.655-.648-1.439-.993-2.263-.993s-1.621.344-2.296.993l-.014.014-2.296 2.317A4.937 4.937 0 0 0 .049 8.317c-.162 1.972.419 3.809.865 5.011 1.094 2.951 2.729 5.687 5.167 8.618 2.958 3.532 6.517 6.322 10.583 8.287 1.553.736 3.627 1.607 5.943 1.756.142.007.29.013.425.013 1.56 0 2.87-.56 3.897-1.675.007-.013.02-.02.027-.034.351-.426.756-.81 1.182-1.222.29-.277.588-.567.878-.871.669-.696 1.02-1.506 1.02-2.337 0-.838-.358-1.641-1.04-2.317l-3.708-3.721zm2.418 7.112c-.007 0-.007.007 0 0-.263.284-.534.54-.824.824-.439.419-.885.858-1.303 1.351-.682.73-1.486 1.074-2.539 1.074-.101 0-.209 0-.311-.007-2.006-.128-3.87-.912-5.268-1.581-3.823-1.85-7.179-4.478-9.969-7.807-2.303-2.776-3.843-5.342-4.863-8.098-.628-1.682-.858-2.992-.756-4.228.068-.79.371-1.445.932-2.006L5.11 4.155c.331-.311.682-.48 1.027-.48.425 0 .77.257.986.473l.02.02c.412.385.804.783 1.216 1.209.209.216.425.432.642.655l1.844 1.844c.716.716.716 1.378 0 2.094-.196.196-.385.392-.581.581a35.386 35.386 0 0 1-1.695 1.648c-.014.014-.027.02-.034.034-.581.581-.473 1.148-.351 1.533l.02.061c.479 1.162 1.155 2.256 2.181 3.559l.007.007c1.864 2.296 3.829 4.086 5.997 5.457.277.176.561.317.831.452.243.122.473.236.669.358.027.013.054.034.081.047.23.115.446.169.669.169.561 0 .912-.351 1.027-.466l2.31-2.31c.23-.23.594-.507 1.02-.507.419 0 .763.263.973.493a.166.166 0 0 1 .013.014l3.721 3.721c.696.689.696 1.398.007 2.114zM17.293 7.612c1.77.297 3.377 1.135 4.66 2.418s2.114 2.891 2.418 4.66a.905.905 0 0 0 .898.756c.054 0 .101-.007.155-.014a.913.913 0 0 0 .75-1.054c-.365-2.141-1.378-4.093-2.924-5.639s-3.498-2.56-5.639-2.924c-.5-.081-.966.25-1.054.743s.236.973.736 1.054zM31.964 14.116c-.601-3.525-2.262-6.734-4.815-9.287S21.388.615 17.862.014a.909.909 0 0 0-1.047.743c-.081.5.25.966.75 1.054 3.147.534 6.018 2.026 8.3 4.302a15.296 15.296 0 0 1 4.302 8.3.905.905 0 0 0 .898.756c.054 0 .101-.007.155-.014a.895.895 0 0 0 .743-1.04z"/></symbol><symbol id="icon-whatsapp" viewBox="0 0 32 32"><path d="M27.281 4.65C24.287 1.65 20.306 0 16.062 0 7.324 0 .212 7.112.212 15.856c0 2.794.731 5.525 2.119 7.925L.081 32l8.406-2.206a15.858 15.858 0 0 0 7.575 1.931h.006c8.738 0 15.856-7.113 15.856-15.856 0-4.238-1.65-8.219-4.644-11.219zm-11.212 24.4a13.17 13.17 0 0 1-6.713-1.837l-.481-.288-4.987 1.306 1.331-4.863-.313-.5a13.086 13.086 0 0 1-2.019-7.012c0-7.269 5.912-13.181 13.188-13.181 3.519 0 6.831 1.375 9.319 3.862a13.108 13.108 0 0 1 3.856 9.325c-.006 7.275-5.919 13.188-13.181 13.188zm7.225-9.875c-.394-.2-2.344-1.156-2.706-1.288s-.625-.2-.894.2c-.262.394-1.025 1.288-1.256 1.556-.231.262-.462.3-.856.1s-1.675-.619-3.188-1.969c-1.175-1.05-1.975-2.35-2.206-2.744s-.025-.613.175-.806c.181-.175.394-.463.594-.694s.262-.394.394-.662c.131-.262.069-.494-.031-.694s-.894-2.15-1.219-2.944c-.319-.775-.65-.669-.894-.681-.231-.012-.494-.012-.756-.012s-.694.1-1.056.494c-.363.394-1.387 1.356-1.387 3.306s1.419 3.831 1.619 4.1c.2.262 2.794 4.269 6.769 5.981.944.406 1.681.65 2.256.837.95.3 1.813.256 2.494.156.762-.113 2.344-.956 2.675-1.881s.331-1.719.231-1.881c-.094-.175-.356-.275-.756-.475z"/></symbol><symbol id="icon-telegram" viewBox="0 0 32 32"><path d="M16 0C7.162 0 0 7.162 0 16s7.162 16 16 16 16-7.163 16-16S24.837 0 16 0zm7.863 10.969-2.625 12.369c-.181.881-.712 1.087-1.45.681l-4-2.956-1.919 1.869c-.225.219-.4.4-.8.4-.519 0-.431-.194-.606-.688L11.1 18.169l-3.956-1.231c-.856-.262-.862-.85.194-1.269l15.412-5.95c.7-.319 1.381.169 1.113 1.25z"/></symbol></defs></svg>